<svg width="31" height="30" viewBox="0 0 31 30" fill="none" xmlns="http://www.w3.org/2000/svg">
<path fill-rule="evenodd" clip-rule="evenodd" d="M0.200012 6.70909C0.200012 3.00376 3.20377 0 6.9091 0H23.4909C27.1962 0 30.2 3.00376 30.2 6.70909V23.2909C30.2 26.9962 27.1962 30 23.4909 30H6.9091C3.20378 30 0.200012 26.9962 0.200012 23.2909V6.70909ZM10.5266 22.3085C13.3293 22.3085 14.3972 20.9674 14.3972 18.2665V8.1987H11.4799V18.5684C11.4799 19.5319 11.0794 20.0796 10.3931 20.0796C9.68751 20.0796 9.28745 19.5319 9.28745 18.5684V8.1987H6.37014V18.2665C6.37014 21.2697 7.57109 22.3085 10.5266 22.3085ZM21.205 15.2819C21.205 11.5797 21.0908 10.163 19.9659 10.163C18.898 10.163 18.8027 11.5797 18.8027 15.1497C18.8027 18.3608 18.9173 20.0607 20.0041 20.0607C21.0337 20.0607 21.205 18.7197 21.205 15.2819ZM23.6459 19.8719C22.921 21.4205 21.6055 22.2896 19.9848 22.2896C18.3641 22.2896 17.0486 21.4397 16.3241 19.8719C15.7141 18.5874 15.6377 17.001 15.6377 15.131C15.6377 12.8264 15.7901 11.0699 16.7627 9.6719C17.5632 8.51962 18.6311 7.93373 19.9848 7.93373C21.3385 7.93373 22.4253 8.51962 23.2261 9.6719C24.1987 11.0699 24.3704 12.8455 24.3704 15.131C24.3704 17.0197 24.2369 18.5874 23.6459 19.8719Z" fill="#222222"/>
</svg>
